<mxfile host="Electron" agent="Mozilla/5.0 (Macintosh; Intel Mac OS X 10_15_7) AppleWebKit/537.36 (KHTML, like Gecko) draw.io/28.1.2 Chrome/138.0.7204.243 Electron/37.4.0 Safari/537.36" version="28.1.2">
  <diagram name="페이지-1" id="ge7ynudYH0SWpXRpJTb-">
    <mxGraphModel dx="1426" dy="789" grid="1" gridSize="10" guides="1" tooltips="1" connect="1" arrows="1" fold="1" page="1" pageScale="1" pageWidth="827" pageHeight="1169" background="#ffffff" math="1" shadow="0">
      <root>
        <mxCell id="0" />
        <mxCell id="1" parent="0" />
        <mxCell id="-oPGyq5Cqz7-k8GaQxrX-370" value="" style="group;rotation=-135;" parent="1" vertex="1" connectable="0">
          <mxGeometry x="250.00395054638602" y="761.0028827345207" width="166.99604945361398" height="120" as="geometry" />
        </mxCell>
        <mxCell id="-oPGyq5Cqz7-k8GaQxrX-371" value="" style="rounded=0;whiteSpace=wrap;html=1;fillColor=#f8cecc;strokeColor=default;rotation=-135;" parent="-oPGyq5Cqz7-k8GaQxrX-370" vertex="1">
          <mxGeometry x="41" y="19" width="78.75" height="68.57142857142857" as="geometry" />
        </mxCell>
        <mxCell id="-oPGyq5Cqz7-k8GaQxrX-372" value="" style="rounded=0;whiteSpace=wrap;html=1;fillColor=#dae8fc;strokeColor=default;rotation=-135;" parent="-oPGyq5Cqz7-k8GaQxrX-370" vertex="1">
          <mxGeometry x="97" y="15" width="26.25" height="17.142857142857142" as="geometry" />
        </mxCell>
        <mxCell id="-oPGyq5Cqz7-k8GaQxrX-373" value="" style="rounded=0;whiteSpace=wrap;html=1;fillColor=#dae8fc;strokeColor=default;rotation=-135;" parent="-oPGyq5Cqz7-k8GaQxrX-370" vertex="1">
          <mxGeometry x="45" y="75" width="8.75" height="17.142857142857142" as="geometry" />
        </mxCell>
        <mxCell id="-oPGyq5Cqz7-k8GaQxrX-374" value="" style="rounded=0;whiteSpace=wrap;html=1;fillColor=#dae8fc;strokeColor=default;rotation=-135;" parent="-oPGyq5Cqz7-k8GaQxrX-370" vertex="1">
          <mxGeometry x="-9" y="89" width="96.25" height="8.571428571428571" as="geometry" />
        </mxCell>
        <mxCell id="-oPGyq5Cqz7-k8GaQxrX-375" value="" style="shape=cylinder3;whiteSpace=wrap;html=1;boundedLbl=1;backgroundOutline=1;size=2.875;direction=south;fillColor=#f8cecc;strokeColor=default;rotation=-135;" parent="-oPGyq5Cqz7-k8GaQxrX-370" vertex="1">
          <mxGeometry x="-13" y="39" width="21.875" height="25.71428571428571" as="geometry" />
        </mxCell>
        <mxCell id="-oPGyq5Cqz7-k8GaQxrX-376" value="" style="shape=cylinder3;whiteSpace=wrap;html=1;boundedLbl=1;backgroundOutline=1;size=2.875;direction=south;fillColor=#f8cecc;strokeColor=default;rotation=-135;" parent="-oPGyq5Cqz7-k8GaQxrX-370" vertex="1">
          <mxGeometry x="71" y="121" width="21.875" height="25.71428571428571" as="geometry" />
        </mxCell>
        <mxCell id="wP25u6oJwDEnEGt5gR-9-16" value="&lt;span style=&quot;font-weight: 400;&quot;&gt;&lt;font style=&quot;color: rgb(0, 0, 0);&quot;&gt;`t = 1`&lt;/font&gt;&lt;/span&gt;" style="text;html=1;align=center;verticalAlign=middle;whiteSpace=wrap;rounded=0;fontSize=30;fontColor=#B9E0A5;fontStyle=1" parent="-oPGyq5Cqz7-k8GaQxrX-370" vertex="1">
          <mxGeometry x="-9.623950546386023" y="36.857117265479346" width="180" height="30" as="geometry" />
        </mxCell>
        <mxCell id="-oPGyq5Cqz7-k8GaQxrX-377" value="" style="ellipse;whiteSpace=wrap;html=1;fillColor=#e1d5e7;strokeColor=#9673a6;" parent="1" vertex="1">
          <mxGeometry x="444" y="676" width="80" height="75" as="geometry" />
        </mxCell>
        <mxCell id="-oPGyq5Cqz7-k8GaQxrX-378" value="" style="shape=cylinder3;whiteSpace=wrap;html=1;boundedLbl=1;backgroundOutline=1;size=9.481481481481381;fillColor=#d5e8d4;strokeColor=#82b366;" parent="1" vertex="1">
          <mxGeometry x="524" y="296" width="140" height="90" as="geometry" />
        </mxCell>
        <mxCell id="-oPGyq5Cqz7-k8GaQxrX-379" value="Goal" style="text;html=1;align=center;verticalAlign=middle;whiteSpace=wrap;rounded=0;fontSize=30;fontColor=#B9E0A5;fontStyle=1" parent="1" vertex="1">
          <mxGeometry x="564" y="256" width="76" height="53" as="geometry" />
        </mxCell>
        <mxCell id="-oPGyq5Cqz7-k8GaQxrX-380" value="&lt;font style=&quot;color: rgb(234, 107, 102);&quot;&gt;Agent&lt;/font&gt;" style="text;html=1;align=center;verticalAlign=middle;whiteSpace=wrap;rounded=0;fontSize=30;fontColor=#B9E0A5;fontStyle=1" parent="1" vertex="1">
          <mxGeometry x="160" y="776" width="90" height="30" as="geometry" />
        </mxCell>
        <mxCell id="-oPGyq5Cqz7-k8GaQxrX-381" value="&lt;font style=&quot;color: rgb(181, 115, 157);&quot;&gt;Hazard&lt;/font&gt;" style="text;html=1;align=center;verticalAlign=middle;whiteSpace=wrap;rounded=0;fontSize=30;fontColor=#B9E0A5;fontStyle=1" parent="1" vertex="1">
          <mxGeometry x="464" y="636" width="106" height="30" as="geometry" />
        </mxCell>
        <mxCell id="-oPGyq5Cqz7-k8GaQxrX-382" value="" style="ellipse;whiteSpace=wrap;html=1;fillColor=#e1d5e7;strokeColor=#9673a6;" parent="1" vertex="1">
          <mxGeometry x="270" y="561" width="80" height="75" as="geometry" />
        </mxCell>
        <mxCell id="-oPGyq5Cqz7-k8GaQxrX-383" value="" style="group;rotation=-150;opacity=23;" parent="1" vertex="1" connectable="0">
          <mxGeometry x="369.9960145752998" y="652.0022762685367" width="168.3739854247002" height="120" as="geometry" />
        </mxCell>
        <mxCell id="-oPGyq5Cqz7-k8GaQxrX-384" value="" style="rounded=0;whiteSpace=wrap;html=1;fillColor=#f8cecc;strokeColor=default;rotation=-150;" parent="-oPGyq5Cqz7-k8GaQxrX-383" vertex="1">
          <mxGeometry x="39" y="17" width="78.75" height="68.57142857142857" as="geometry" />
        </mxCell>
        <mxCell id="-oPGyq5Cqz7-k8GaQxrX-385" value="" style="rounded=0;whiteSpace=wrap;html=1;fillColor=#dae8fc;strokeColor=default;rotation=-150;" parent="-oPGyq5Cqz7-k8GaQxrX-383" vertex="1">
          <mxGeometry x="87" y="6" width="26.25" height="17.142857142857142" as="geometry" />
        </mxCell>
        <mxCell id="-oPGyq5Cqz7-k8GaQxrX-386" value="" style="rounded=0;whiteSpace=wrap;html=1;fillColor=#dae8fc;strokeColor=default;rotation=-150;" parent="-oPGyq5Cqz7-k8GaQxrX-383" vertex="1">
          <mxGeometry x="52" y="80" width="8.75" height="17.142857142857142" as="geometry" />
        </mxCell>
        <mxCell id="-oPGyq5Cqz7-k8GaQxrX-387" value="" style="rounded=0;whiteSpace=wrap;html=1;fillColor=#dae8fc;strokeColor=default;rotation=-150;" parent="-oPGyq5Cqz7-k8GaQxrX-383" vertex="1">
          <mxGeometry x="1" y="96" width="96.25" height="8.571428571428571" as="geometry" />
        </mxCell>
        <mxCell id="-oPGyq5Cqz7-k8GaQxrX-388" value="" style="shape=cylinder3;whiteSpace=wrap;html=1;boundedLbl=1;backgroundOutline=1;size=2.875;direction=south;fillColor=#f8cecc;strokeColor=default;rotation=-150;" parent="-oPGyq5Cqz7-k8GaQxrX-383" vertex="1">
          <mxGeometry x="-13" y="58" width="21.875" height="25.71428571428571" as="geometry" />
        </mxCell>
        <mxCell id="-oPGyq5Cqz7-k8GaQxrX-389" value="" style="shape=cylinder3;whiteSpace=wrap;html=1;boundedLbl=1;backgroundOutline=1;size=2.875;direction=south;fillColor=#f8cecc;strokeColor=default;rotation=-150;" parent="-oPGyq5Cqz7-k8GaQxrX-383" vertex="1">
          <mxGeometry x="89" y="116" width="21.875" height="25.71428571428571" as="geometry" />
        </mxCell>
        <mxCell id="wP25u6oJwDEnEGt5gR-9-17" value="&lt;span style=&quot;font-weight: 400;&quot;&gt;&lt;font style=&quot;color: rgb(0, 0, 0);&quot;&gt;`t = 2`&lt;/font&gt;&lt;/span&gt;" style="text;html=1;align=center;verticalAlign=middle;whiteSpace=wrap;rounded=0;fontSize=30;fontColor=#B9E0A5;fontStyle=1" parent="-oPGyq5Cqz7-k8GaQxrX-383" vertex="1">
          <mxGeometry x="-11.626014575299791" y="36.2877237314633" width="180" height="30" as="geometry" />
        </mxCell>
        <mxCell id="-oPGyq5Cqz7-k8GaQxrX-390" value="" style="group;rotation=-165;opacity=23;" parent="1" vertex="1" connectable="0">
          <mxGeometry x="430.0017782649106" y="496.0015242270663" width="165.37822173508937" height="120" as="geometry" />
        </mxCell>
        <mxCell id="-oPGyq5Cqz7-k8GaQxrX-391" value="" style="rounded=0;whiteSpace=wrap;html=1;fillColor=#f8cecc;strokeColor=default;rotation=-165;" parent="-oPGyq5Cqz7-k8GaQxrX-390" vertex="1">
          <mxGeometry x="36" y="15" width="78.75" height="68.57142857142857" as="geometry" />
        </mxCell>
        <mxCell id="-oPGyq5Cqz7-k8GaQxrX-392" value="" style="rounded=0;whiteSpace=wrap;html=1;fillColor=#dae8fc;strokeColor=default;rotation=-165;" parent="-oPGyq5Cqz7-k8GaQxrX-390" vertex="1">
          <mxGeometry x="74" width="26.25" height="17.142857142857142" as="geometry" />
        </mxCell>
        <mxCell id="-oPGyq5Cqz7-k8GaQxrX-393" value="" style="rounded=0;whiteSpace=wrap;html=1;fillColor=#dae8fc;strokeColor=default;rotation=-165;" parent="-oPGyq5Cqz7-k8GaQxrX-390" vertex="1">
          <mxGeometry x="60" y="83" width="8.75" height="17.142857142857142" as="geometry" />
        </mxCell>
        <mxCell id="-oPGyq5Cqz7-k8GaQxrX-394" value="" style="rounded=0;whiteSpace=wrap;html=1;fillColor=#dae8fc;strokeColor=default;rotation=-165;" parent="-oPGyq5Cqz7-k8GaQxrX-390" vertex="1">
          <mxGeometry x="12" y="100" width="96.25" height="8.571428571428571" as="geometry" />
        </mxCell>
        <mxCell id="-oPGyq5Cqz7-k8GaQxrX-395" value="" style="shape=cylinder3;whiteSpace=wrap;html=1;boundedLbl=1;backgroundOutline=1;size=2.875;direction=south;fillColor=#f8cecc;strokeColor=default;rotation=-165;" parent="-oPGyq5Cqz7-k8GaQxrX-390" vertex="1">
          <mxGeometry x="-8" y="76" width="21.875" height="25.71428571428571" as="geometry" />
        </mxCell>
        <mxCell id="-oPGyq5Cqz7-k8GaQxrX-396" value="" style="shape=cylinder3;whiteSpace=wrap;html=1;boundedLbl=1;backgroundOutline=1;size=2.875;direction=south;fillColor=#f8cecc;strokeColor=default;rotation=-165;" parent="-oPGyq5Cqz7-k8GaQxrX-390" vertex="1">
          <mxGeometry x="106" y="106" width="21.875" height="25.71428571428571" as="geometry" />
        </mxCell>
        <mxCell id="wP25u6oJwDEnEGt5gR-9-26" value="&lt;span style=&quot;font-weight: 400;&quot;&gt;&lt;font style=&quot;color: rgb(0, 0, 0);&quot;&gt;`t = 3`&lt;/font&gt;&lt;/span&gt;" style="text;html=1;align=center;verticalAlign=middle;whiteSpace=wrap;rounded=0;fontSize=30;fontColor=#B9E0A5;fontStyle=1" parent="-oPGyq5Cqz7-k8GaQxrX-390" vertex="1">
          <mxGeometry x="-14.621778264910631" y="34.28847577293368" width="180" height="30" as="geometry" />
        </mxCell>
        <mxCell id="-oPGyq5Cqz7-k8GaQxrX-397" value="" style="group;rotation=-150;opacity=23;" parent="1" vertex="1" connectable="0">
          <mxGeometry x="470.003950546386" y="356.0028827345204" width="169.99604945361398" height="120" as="geometry" />
        </mxCell>
        <mxCell id="-oPGyq5Cqz7-k8GaQxrX-398" value="" style="rounded=0;whiteSpace=wrap;html=1;fillColor=#f8cecc;strokeColor=default;rotation=-150;" parent="-oPGyq5Cqz7-k8GaQxrX-397" vertex="1">
          <mxGeometry x="39" y="17" width="78.75" height="68.57142857142857" as="geometry" />
        </mxCell>
        <mxCell id="-oPGyq5Cqz7-k8GaQxrX-399" value="" style="rounded=0;whiteSpace=wrap;html=1;fillColor=#dae8fc;strokeColor=default;rotation=-150;" parent="-oPGyq5Cqz7-k8GaQxrX-397" vertex="1">
          <mxGeometry x="87" y="6" width="26.25" height="17.142857142857142" as="geometry" />
        </mxCell>
        <mxCell id="-oPGyq5Cqz7-k8GaQxrX-400" value="" style="rounded=0;whiteSpace=wrap;html=1;fillColor=#dae8fc;strokeColor=default;rotation=-150;" parent="-oPGyq5Cqz7-k8GaQxrX-397" vertex="1">
          <mxGeometry x="52" y="80" width="8.75" height="17.142857142857142" as="geometry" />
        </mxCell>
        <mxCell id="-oPGyq5Cqz7-k8GaQxrX-401" value="" style="rounded=0;whiteSpace=wrap;html=1;fillColor=#dae8fc;strokeColor=default;rotation=-150;" parent="-oPGyq5Cqz7-k8GaQxrX-397" vertex="1">
          <mxGeometry x="1" y="96" width="96.25" height="8.571428571428571" as="geometry" />
        </mxCell>
        <mxCell id="-oPGyq5Cqz7-k8GaQxrX-402" value="" style="shape=cylinder3;whiteSpace=wrap;html=1;boundedLbl=1;backgroundOutline=1;size=2.875;direction=south;fillColor=#f8cecc;strokeColor=default;rotation=-150;" parent="-oPGyq5Cqz7-k8GaQxrX-397" vertex="1">
          <mxGeometry x="-13" y="58" width="21.875" height="25.71428571428571" as="geometry" />
        </mxCell>
        <mxCell id="-oPGyq5Cqz7-k8GaQxrX-403" value="" style="shape=cylinder3;whiteSpace=wrap;html=1;boundedLbl=1;backgroundOutline=1;size=2.875;direction=south;fillColor=#f8cecc;strokeColor=default;rotation=-150;" parent="-oPGyq5Cqz7-k8GaQxrX-397" vertex="1">
          <mxGeometry x="89" y="116" width="21.875" height="25.71428571428571" as="geometry" />
        </mxCell>
        <mxCell id="wP25u6oJwDEnEGt5gR-9-27" value="&lt;span style=&quot;font-weight: 400;&quot;&gt;&lt;font style=&quot;color: rgb(0, 0, 0);&quot;&gt;`t = 4`&lt;/font&gt;&lt;/span&gt;" style="text;html=1;align=center;verticalAlign=middle;whiteSpace=wrap;rounded=0;fontSize=30;fontColor=#B9E0A5;fontStyle=1" parent="-oPGyq5Cqz7-k8GaQxrX-397" vertex="1">
          <mxGeometry x="-10.003950546386022" y="36.28711726547954" width="180" height="30" as="geometry" />
        </mxCell>
        <mxCell id="-oPGyq5Cqz7-k8GaQxrX-427" style="edgeStyle=orthogonalEdgeStyle;rounded=0;orthogonalLoop=1;jettySize=auto;html=1;exitX=0.5;exitY=1;exitDx=0;exitDy=0;" parent="1" edge="1">
          <mxGeometry relative="1" as="geometry">
            <mxPoint x="380" y="526.0000000000002" as="sourcePoint" />
            <mxPoint x="380" y="526.0000000000002" as="targetPoint" />
          </mxGeometry>
        </mxCell>
        <mxCell id="-oPGyq5Cqz7-k8GaQxrX-430" value="" style="curved=1;endArrow=classic;html=1;rounded=0;exitX=0.5;exitY=1;exitDx=0;exitDy=0;entryX=0.5;entryY=1;entryDx=0;entryDy=0;" parent="1" source="-oPGyq5Cqz7-k8GaQxrX-374" target="-oPGyq5Cqz7-k8GaQxrX-399" edge="1">
          <mxGeometry width="50" height="50" relative="1" as="geometry">
            <mxPoint x="240" y="622" as="sourcePoint" />
            <mxPoint x="290" y="572" as="targetPoint" />
            <Array as="points">
              <mxPoint x="390" y="762" />
              <mxPoint x="430" y="742" />
              <mxPoint x="440" y="712" />
              <mxPoint x="490" y="642" />
              <mxPoint x="490" y="592" />
              <mxPoint x="520" y="512" />
              <mxPoint x="510" y="482" />
              <mxPoint x="530" y="432" />
            </Array>
          </mxGeometry>
        </mxCell>
        <mxCell id="wP25u6oJwDEnEGt5gR-9-2" value="&lt;font style=&quot;font-weight: normal; color: rgb(0, 0, 255);&quot;&gt;`r_1 = 0.4`&lt;/font&gt;" style="text;html=1;align=center;verticalAlign=middle;whiteSpace=wrap;rounded=0;fontSize=30;fontColor=#B9E0A5;fontStyle=1" parent="1" vertex="1">
          <mxGeometry x="360" y="910" width="180" height="30" as="geometry" />
        </mxCell>
        <mxCell id="wP25u6oJwDEnEGt5gR-9-3" value="&lt;font style=&quot;font-weight: normal; color: rgb(255, 0, 0);&quot;&gt;`c_1 = 0`&lt;/font&gt;" style="text;html=1;align=center;verticalAlign=middle;whiteSpace=wrap;rounded=0;fontSize=30;fontColor=#B9E0A5;fontStyle=1" parent="1" vertex="1">
          <mxGeometry x="348" y="950" width="180" height="30" as="geometry" />
        </mxCell>
        <mxCell id="wP25u6oJwDEnEGt5gR-9-8" value="&lt;font style=&quot;font-weight: normal; color: rgb(0, 0, 255);&quot;&gt;`r_2 = 0.5`&lt;/font&gt;" style="text;html=1;align=center;verticalAlign=middle;whiteSpace=wrap;rounded=0;fontSize=30;fontColor=#B9E0A5;fontStyle=1" parent="1" vertex="1">
          <mxGeometry x="552" y="710" width="180" height="30" as="geometry" />
        </mxCell>
        <mxCell id="wP25u6oJwDEnEGt5gR-9-9" value="&lt;font style=&quot;font-weight: normal; color: rgb(255, 0, 0);&quot;&gt;`c_2 = 1.0`&lt;/font&gt;" style="text;html=1;align=center;verticalAlign=middle;whiteSpace=wrap;rounded=0;fontSize=30;fontColor=#B9E0A5;fontStyle=1" parent="1" vertex="1">
          <mxGeometry x="552" y="751" width="180" height="30" as="geometry" />
        </mxCell>
        <mxCell id="wP25u6oJwDEnEGt5gR-9-10" value="&lt;font style=&quot;font-weight: normal; color: rgb(0, 0, 255);&quot;&gt;`r_3 = 0.6`&lt;/font&gt;" style="text;html=1;align=center;verticalAlign=middle;whiteSpace=wrap;rounded=0;fontSize=30;fontColor=#B9E0A5;fontStyle=1" parent="1" vertex="1">
          <mxGeometry x="592" y="540" width="180" height="30" as="geometry" />
        </mxCell>
        <mxCell id="wP25u6oJwDEnEGt5gR-9-11" value="&lt;font style=&quot;font-weight: normal; color: rgb(255, 0, 0);&quot;&gt;`c_3 = 0`&lt;/font&gt;" style="text;html=1;align=center;verticalAlign=middle;whiteSpace=wrap;rounded=0;fontSize=30;fontColor=#B9E0A5;fontStyle=1" parent="1" vertex="1">
          <mxGeometry x="580" y="580" width="180" height="30" as="geometry" />
        </mxCell>
        <mxCell id="wP25u6oJwDEnEGt5gR-9-14" value="&lt;font style=&quot;font-weight: normal; color: rgb(0, 0, 255);&quot;&gt;`r_4 = 0.7`&lt;/font&gt;" style="text;html=1;align=center;verticalAlign=middle;whiteSpace=wrap;rounded=0;fontSize=30;fontColor=#B9E0A5;fontStyle=1" parent="1" vertex="1">
          <mxGeometry x="290" y="340" width="180" height="30" as="geometry" />
        </mxCell>
        <mxCell id="wP25u6oJwDEnEGt5gR-9-15" value="&lt;font style=&quot;font-weight: normal; color: rgb(255, 0, 0);&quot;&gt;`c_4 = 0`&lt;/font&gt;" style="text;html=1;align=center;verticalAlign=middle;whiteSpace=wrap;rounded=0;fontSize=30;fontColor=#B9E0A5;fontStyle=1" parent="1" vertex="1">
          <mxGeometry x="278" y="380" width="180" height="30" as="geometry" />
        </mxCell>
      </root>
    </mxGraphModel>
  </diagram>
</mxfile>
